<?xml version="1.0" encoding="UTF-8" standalone="no"?>
<svg
   xmlns:dc="http://purl.org/dc/elements/1.1/"
   xmlns:cc="http://creativecommons.org/ns#"
   xmlns:rdf="http://www.w3.org/1999/02/22-rdf-syntax-ns#"
   xmlns:svg="http://www.w3.org/2000/svg"
   xmlns="http://www.w3.org/2000/svg"
   viewBox="0 0 1333.3333 1333.3333"
   height="1333.3333"
   width="1333.3333"
   xml:space="preserve"
   id="svg2"
   version="1.1"><metadata
     id="metadata8"><rdf:RDF><cc:Work
         rdf:about=""><dc:format>image/svg+xml</dc:format><dc:type
           rdf:resource="http://purl.org/dc/dcmitype/StillImage" /></cc:Work></rdf:RDF></metadata><defs
     id="defs6"><clipPath
       id="clipPath18"
       clipPathUnits="userSpaceOnUse"><path
         id="path16"
         d="M 0,1000 H 1000 V 0 H 0 Z" /></clipPath></defs><g
     transform="matrix(1.3333333,0,0,-1.3333333,0,1333.3333)"
     id="g10"><g
       id="g12"><g
         clip-path="url(#clipPath18)"
         id="g14"><g
           transform="translate(639.6606,545.4112)"
           id="g20"><path
             id="path22"
             style="fill:#265376;fill-opacity:1;fill-rule:nonzero;stroke:none"
             d="m 0,0 c 0.18,0.9 0.47,1.74 0.87,2.51 -30.07,30.23 -66.52,60.27 -82.39,100.83 -1.79,4.58 -4.25,9.22 -8.5,11.67 -2.26,1.31 -4.9,1.87 -7.53,1.85 -0.5,0 -1.03,-0.03 -1.54,-0.08 -2.15,-0.21 -4.24,-0.81 -6.19,-1.73 -2.03,-0.98 -3.4,-3.64 -5.61,-4.2 -1.45,-0.36 -2.8,0.03 -4.13,0.56 -1.4,0.56 -2.79,1.26 -4.25,1.35 -1.66,0.11 -3.2,-0.24 -4.63,-0.9 -1.51,-0.7 -2.88,-1.71 -4.13,-2.85 -3.41,-3.1 -6.31,-6.59 -11.16,-7.37 -0.09,-0.02 -0.2,-0.03 -0.29,-0.03 -0.1,0 -0.21,0.01 -0.3,0.03 -4.85,0.78 -7.75,4.27 -11.16,7.37 -1.25,1.14 -2.62,2.15 -4.13,2.85 -1.43,0.66 -2.97,1.01 -4.63,0.9 -1.46,-0.09 -2.83,-0.79 -4.23,-1.35 -1.35,-0.53 -2.7,-0.92 -4.15,-0.56 -2.21,0.56 -3.58,3.22 -5.61,4.2 -1.95,0.92 -4.04,1.52 -6.19,1.73 -0.51,0.05 -1.04,0.08 -1.54,0.08 -2.63,0.02 -5.27,-0.54 -7.53,-1.85 -4.25,-2.45 -6.71,-7.09 -8.5,-11.67 -15.87,-40.55 -52.31,-70.6 -82.39,-100.82 0.41,-0.77 0.7,-1.62 0.88,-2.52 0.33,-1.7 0.51,-5.27 -2.44,-8.81 0.05,0.01 0.1,0.02 0.16,0.02 2.4,0.24 4.86,0.36 7.3,0.36 2.57,0 5.17,-0.13 7.73,-0.4 14.96,-1.56 28.78,-7.4 38.46,-16.14 v 65.79 c 0,4.352 3.528,7.88 7.88,7.88 h 0.01 23.56 11.89 89.86 11.89 23.56 v 0 c 4.352,0 7.88,-3.528 7.88,-7.88 v -65.79 c 9.68,8.74 23.5,14.58 38.46,16.14 2.56,0.27 5.17,0.4 7.73,0.4 2.45,0 4.91,-0.12 7.32,-0.36 0.05,0 0.09,-0.01 0.14,-0.02 C -0.52,-5.27 -0.34,-1.7 0,0" /></g><g
           transform="translate(320.79,520.3043)"
           id="g24"><path
             id="path26"
             style="fill:#4ab3d7;fill-opacity:1;fill-rule:nonzero;stroke:none"
             d="m 0,0 c 0.054,0.136 0.017,0.29 -0.024,0.43 -1.103,3.771 -5.106,7.295 -8.96,8.017 -3.967,0.744 -10.052,-3.26 -7.783,-7.763 1.737,-3.447 6.268,-3.463 9.526,-2.941 2.345,0.376 4.667,0.971 6.839,1.933 C -0.24,-0.253 -0.065,-0.165 0,0" /></g><g
           transform="translate(331.7742,535.4045)"
           id="g28"><path
             id="path30"
             style="fill:#4ab3d7;fill-opacity:1;fill-rule:nonzero;stroke:none"
             d="M 0,0 C 0.151,0.118 0.21,0.316 0.257,0.501 1.509,5.481 -0.673,12.1 -4.54,15.463 -8.52,18.925 -18.027,18.436 -18.447,11.86 -18.769,6.826 -13.672,3.811 -9.655,2.245 -6.762,1.117 -3.752,0.253 -0.668,-0.1 -0.438,-0.126 -0.182,-0.143 0,0" /></g><g
           transform="translate(545.7607,574.0111)"
           id="g32"><path
             id="path34"
             style="fill:#e25b21;fill-opacity:1;fill-rule:nonzero;stroke:none"
             d="m 0,0 c 0,-3.17 -2.85,-5.75 -6.38,-5.75 -3.51,0 -6.37,2.58 -6.37,5.75 0,0.08 0,0.16 0.01,0.24 V 0.3 c 0.17,3.05 2.95,5.46 6.36,5.46 3.42,0 6.2,-2.41 6.38,-5.46 z m -45.58,0 c -2.43,0 -4.39,1.78 -4.39,3.97 0,0.09 0,0.18 0.02,0.27 0.14,2.07 2.04,3.7 4.37,3.7 2.32,0 4.22,-1.63 4.37,-3.7 0.01,-0.09 0.02,-0.18 0.02,-0.27 0,-2.19 -1.97,-3.97 -4.39,-3.97 m 0,-9.71 c -2.43,0 -4.39,1.77 -4.39,3.96 0,0.09 0,0.18 0.02,0.27 0.14,2.06 2.04,3.7 4.37,3.7 2.32,0 4.22,-1.64 4.37,-3.7 0.01,-0.09 0.02,-0.18 0.02,-0.27 0,-2.19 -1.97,-3.96 -4.39,-3.96 m -36.97,3.36 c -1.3,-1.17 -3.08,-1.89 -5.05,-1.89 h -22.66 c -3.94,0 -7.16,2.9 -7.16,6.46 0,0.09 0,0.19 0.01,0.29 0.05,0.92 0.32,1.8 0.75,2.59 0.35,0.62 0.8,1.19 1.34,1.69 1.3,1.16 3.09,1.88 5.06,1.88 h 22.66 c 3.83,0 6.99,-2.76 7.14,-6.19 0.01,-0.09 0.01,-0.17 0.01,-0.26 0,-1.78 -0.8,-3.4 -2.1,-4.57 m -45.3,12.57 V -17.62 H 36.68 V 6.22 c 0,4.352 -3.528,7.88 -7.88,7.88 h -148.77 c -4.352,0 -7.88,-3.528 -7.88,-7.88" /></g><g
           transform="translate(501.4096,415.9521)"
           id="g36"><path
             id="path38"
             style="fill:#265376;fill-opacity:1;fill-rule:nonzero;stroke:none"
             d="m 0,0 c -36.163,0 -65.584,29.422 -65.584,65.584 0,36.163 29.421,65.585 65.584,65.585 36.163,0 65.584,-29.422 65.584,-65.585 C 65.584,29.422 36.163,0 0,0 M -83.502,137.034 V -23.365 c 3.72,1.096 8.601,2.402 12.35,4.047 0.519,0.226 3.303,-3.416 3.702,-3.767 3.421,-3.022 8.017,-4.053 12.416,-2.873 3.57,0.959 6.712,3.117 9.412,5.644 7.278,-8.434 18.34,-14.496 29.636,-14.579 4.917,-0.036 9.954,1.019 14.752,2.855 4.798,-1.836 9.835,-2.891 14.753,-2.855 11.295,0.083 22.358,6.145 29.636,14.579 2.7,-2.527 5.841,-4.685 9.411,-5.644 4.399,-1.18 8.995,-0.149 12.416,2.873 0.4,0.351 3.183,3.993 3.702,3.767 3.749,-1.645 8.631,-3.13 12.35,-4.226 v 160.578 z" /></g><g
           transform="translate(546.7278,467.9345)"
           id="g40"><path
             id="path42"
             style="fill:#e25b21;fill-opacity:1;fill-rule:nonzero;stroke:none"
             d="m 0,0 c -5.841,-19.503 -23.92,-33.707 -45.318,-33.707 -26.126,0 -47.309,21.178 -47.309,47.309 0,0.274 0,0.542 0.011,0.817 0.43,25.749 21.447,46.486 47.298,46.486 26.125,0 47.309,-21.178 47.309,-47.303 C 1.991,8.875 1.299,4.309 0,0.006 Z m -45.318,76.206 c -34.578,0 -62.604,-28.033 -62.604,-62.604 0,-34.577 28.026,-62.604 62.604,-62.604 34.577,0 62.604,28.027 62.604,62.604 0,34.571 -28.027,62.604 -62.604,62.604" /></g><g
           transform="translate(545.5715,477.6085)"
           id="g44"><path
             id="path46"
             style="fill:#4ab3d7;fill-opacity:1;fill-rule:nonzero;stroke:none"
             d="m 0,0 c -0.268,-2.998 -0.834,-5.949 -1.699,-8.81 l -0.089,-0.31 c -5.669,-18.436 -23.05,-31.281 -42.374,-31.281 -24.444,0 -44.329,19.885 -44.329,44.329 0,0.232 0,0.459 0.012,0.685 v 0.084 c 0.006,0.423 0.018,0.846 0.042,1.27 13.888,4.518 30.816,-4.37 42.004,-10.092 2.206,-1.132 4.602,-2.11 7.081,-1.997 2.837,0.126 5.407,1.628 6.921,4.036 0.941,1.508 2.199,4.101 1.537,5.931 -0.828,2.271 -3.385,1.853 -5.412,2.145 -3.409,0.489 -7.117,2.885 -6.348,6.795 2.212,11.26 15.724,14.657 25.416,11.343 7.475,-2.557 12.517,-8.934 15.122,-16.2 C -1.192,5.353 -0.507,2.694 0,0" /></g><g
           transform="translate(685.3234,438.5547)"
           id="g48"><path
             id="path50"
             style="fill:#4ab3d7;fill-opacity:1;fill-rule:nonzero;stroke:none"
             d="m 0,0 c -3.749,-7.308 -8.947,-13.185 -14.007,-19.533 -5.812,-7.302 -11.82,-14.484 -18.699,-20.814 -9.739,-8.965 -20.45,-16.851 -31.811,-23.628 -31.735,-18.955 -67.802,-28.873 -104.519,-31.43 -41.718,-2.915 -85.731,4.84 -123.116,23.949 -32.861,16.797 -63.474,40.95 -79.812,74.836 -1.049,2.175 -1.985,4.404 -2.808,6.658 -8.559,23.538 -4.595,50.688 14.919,67.95 4.668,4.131 9.961,7.344 15.617,9.68 5.693,2.361 11.755,3.821 17.918,4.429 4.59,0.459 9.233,0.441 13.822,-0.036 13.263,-1.389 27.538,-6.825 36.998,-16.475 1.907,-1.949 3.683,-4.601 5.102,-7.594 1.407,-2.968 2.468,-6.276 2.98,-9.578 v -7.993 c -0.459,-2.504 -1.412,-4.799 -2.98,-6.694 -1.538,-1.872 -3.678,-3.344 -6.515,-4.25 -4.244,-1.347 -6.753,0.864 -8.071,4.047 -0.703,1.711 -2.664,2.426 -4.303,1.58 -2.891,-1.484 -6.408,-1.544 -9.37,-0.119 -1.502,0.727 -3.332,0.172 -4.077,-1.324 -5.71,-11.48 -6.622,-26.679 0.906,-37.355 5.448,-7.719 16.564,-12.72 26.799,-15.813 0.649,-0.197 1.281,0.34 1.21,1.007 -0.042,0.346 -0.263,0.644 -0.59,0.769 -4.203,1.693 -8.274,3.904 -11.993,6.485 -4.995,3.469 -10.085,8.154 -10.55,14.604 -0.292,4.065 1.257,8.225 4.13,11.11 1.502,1.508 3.386,2.694 5.472,3.118 2.086,0.429 4.375,0.041 6.056,-1.264 2.408,-1.866 3.171,-5.329 2.438,-8.285 -0.399,-1.592 -1.246,-3.159 -2.664,-3.982 -1.634,-0.948 -4.209,-0.125 -5.55,-1.383 -1.418,-1.335 0.203,-3.826 1.02,-5.048 3.045,-4.542 6.663,-8.989 11.319,-11.963 1.353,-0.865 2.813,-1.586 4.333,-2.087 v -9.113 c -6.861,-0.716 -13.739,-0.966 -20.564,-0.608 -9.352,0.483 -18.585,2.235 -27.061,5.728 -4.238,1.74 -8.267,3.922 -11.957,6.586 -3.69,2.659 -7.105,5.752 -9.978,9.192 -5.704,6.967 -9.459,15.658 -10.419,24.676 -0.25,2.253 -0.274,4.518 -0.185,6.778 0.143,2.253 0.465,4.488 0.948,6.687 0.542,2.182 1.228,4.328 2.134,6.384 0.936,2.033 1.997,4.024 3.302,5.853 1.317,1.818 2.736,3.583 4.405,5.115 l 0.608,0.596 c 0.208,0.19 0.429,0.369 0.643,0.554 l 1.3,1.103 1.371,1.013 0.691,0.507 0.722,0.459 1.448,0.924 c 0.495,0.292 1.007,0.554 1.508,0.834 0.507,0.274 1.013,0.578 1.514,0.787 0.501,0.226 0.989,0.483 1.52,0.673 2.08,0.835 4.298,1.467 6.568,1.902 4.56,0.852 9.305,1.085 13.984,0.649 4.685,-0.399 9.316,-1.472 13.584,-3.284 4.226,-1.848 8.083,-4.566 10.628,-8.249 0.286,-0.477 0.614,-0.936 0.882,-1.419 l 0.751,-1.496 0.59,-1.568 c 0.185,-0.524 0.292,-1.079 0.447,-1.621 0.495,-2.193 0.596,-4.494 0.417,-6.795 v -0.06 c -0.065,-0.864 0.567,-1.639 1.437,-1.74 0.894,-0.101 1.705,0.542 1.806,1.436 0.298,2.593 0.292,5.258 -0.209,7.886 -0.149,0.65 -0.268,1.318 -0.459,1.955 l -0.643,1.914 -0.841,1.836 c -0.304,0.601 -0.667,1.168 -1.001,1.752 -1.443,2.277 -3.29,4.262 -5.341,5.931 -2.056,1.675 -4.309,3.058 -6.658,4.184 -4.721,2.217 -9.757,3.565 -14.86,4.196 -5.102,0.656 -10.288,0.608 -15.443,-0.161 -2.575,-0.399 -5.138,-1.019 -7.666,-1.925 -1.257,-0.453 -2.539,-1.007 -3.677,-1.597 -0.585,-0.298 -1.175,-0.579 -1.753,-0.889 l -1.705,-1.001 -0.852,-0.501 -0.817,-0.56 -1.639,-1.12 -1.561,-1.228 c -0.263,-0.209 -0.525,-0.406 -0.781,-0.62 l -0.739,-0.668 c -2.021,-1.74 -3.791,-3.755 -5.43,-5.865 -1.634,-2.122 -2.993,-4.441 -4.197,-6.831 -1.168,-2.414 -2.086,-4.935 -2.819,-7.51 -0.679,-2.587 -1.15,-5.216 -1.413,-7.868 -0.214,-2.659 -0.28,-5.323 -0.083,-7.975 0.739,-10.616 4.727,-20.904 11.182,-29.41 l 1.252,-1.562 0.632,-0.774 0.673,-0.751 1.341,-1.485 1.407,-1.4 c 0.471,-0.459 0.924,-0.954 1.418,-1.383 l 1.485,-1.324 c 0.965,-0.906 2.032,-1.686 3.063,-2.521 4.179,-3.254 8.768,-5.96 13.561,-8.142 9.596,-4.375 19.92,-6.688 30.184,-7.594 7.522,-0.679 14.103,-0.751 21.345,-0.25 v -22.752 l 3.821,1.127 c 0.596,0.179 1.216,0.357 1.854,0.542 2.938,0.853 6.204,1.794 9.137,2.933 0.435,-0.495 0.906,-1.061 1.156,-1.353 0.602,-0.721 0.829,-0.984 1.091,-1.216 2.992,-2.641 6.825,-4.095 10.801,-4.095 1.466,0 2.932,0.197 4.363,0.578 2.831,0.763 5.645,2.235 8.392,4.387 8.202,-8.374 19.164,-13.346 29.857,-13.423 h 0.262 c 4.709,0 9.585,0.894 14.514,2.658 4.93,-1.764 9.805,-2.658 14.514,-2.658 h 0.263 c 10.687,0.077 21.654,5.049 29.85,13.423 2.754,-2.17 5.52,-3.612 8.399,-4.387 1.43,-0.381 2.897,-0.578 4.363,-0.578 3.975,0 7.808,1.454 10.794,4.095 0.269,0.232 0.495,0.495 1.097,1.216 0.245,0.292 0.715,0.852 1.151,1.341 3.367,-1.335 7.248,-2.533 10.997,-3.642 l 3.821,-1.127 v 22.931 c 7.242,-0.501 13.828,-0.429 21.35,0.25 10.265,0.906 20.588,3.219 30.185,7.594 4.792,2.182 9.382,4.888 13.56,8.142 1.031,0.835 2.098,1.615 3.064,2.521 l 1.484,1.324 c 0.495,0.429 0.948,0.924 1.419,1.383 l 1.406,1.4 1.342,1.485 0.673,0.751 0.632,0.774 1.252,1.562 c 6.455,8.506 10.443,18.794 11.182,29.41 0.19,2.652 0.131,5.316 -0.084,7.975 -0.262,2.652 -0.739,5.281 -1.412,7.868 -0.734,2.575 -1.651,5.096 -2.82,7.51 -1.204,2.39 -2.563,4.709 -4.196,6.831 -1.639,2.11 -3.41,4.125 -5.43,5.865 l -0.739,0.668 c -0.257,0.214 -0.519,0.411 -0.781,0.62 l -1.562,1.228 -1.639,1.12 -0.817,0.56 -0.852,0.501 -1.705,1.001 c -0.578,0.31 -1.168,0.591 -1.752,0.889 -1.139,0.59 -2.42,1.144 -3.678,1.597 -2.527,0.906 -5.09,1.526 -7.671,1.925 -5.15,0.769 -10.336,0.817 -15.438,0.161 -5.102,-0.631 -10.139,-1.979 -14.86,-4.196 -2.348,-1.126 -4.601,-2.509 -6.658,-4.184 -2.05,-1.669 -3.898,-3.654 -5.34,-5.931 -0.334,-0.584 -0.698,-1.151 -1.002,-1.752 l -0.84,-1.836 -0.644,-1.914 c -0.191,-0.637 -0.31,-1.305 -0.465,-1.955 -0.495,-2.628 -0.5,-5.293 -0.202,-7.886 0.101,-0.894 0.912,-1.537 1.806,-1.436 0.87,0.101 1.502,0.876 1.436,1.74 v 0.06 c -0.179,2.301 -0.077,4.602 0.417,6.795 0.155,0.542 0.263,1.097 0.447,1.621 l 0.59,1.568 0.751,1.496 c 0.269,0.483 0.597,0.942 0.883,1.419 2.545,3.683 6.401,6.401 10.627,8.249 4.268,1.812 8.9,2.885 13.579,3.284 4.685,0.436 9.429,0.203 13.989,-0.649 2.271,-0.435 4.488,-1.067 6.569,-1.902 0.53,-0.19 1.019,-0.447 1.52,-0.673 0.5,-0.209 1.007,-0.513 1.514,-0.787 0.5,-0.28 1.013,-0.542 1.508,-0.834 l 1.448,-0.924 0.721,-0.459 0.692,-0.507 1.371,-1.013 1.299,-1.103 c 0.215,-0.185 0.435,-0.364 0.644,-0.554 l 0.608,-0.596 c 1.669,-1.532 3.087,-3.297 4.405,-5.115 1.305,-1.829 2.366,-3.82 3.302,-5.853 0.906,-2.056 1.591,-4.202 2.134,-6.384 0.483,-2.199 0.804,-4.434 0.948,-6.687 0.089,-2.26 0.065,-4.525 -0.185,-6.778 -0.96,-9.018 -4.715,-17.709 -10.419,-24.676 -2.873,-3.44 -6.289,-6.533 -9.978,-9.192 -3.69,-2.664 -7.719,-4.846 -11.957,-6.586 -8.476,-3.493 -17.709,-5.245 -27.061,-5.728 -6.831,-0.358 -13.71,-0.108 -20.57,0.608 v 9.113 c 1.52,0.501 2.98,1.222 4.333,2.087 4.655,2.974 8.273,7.421 11.319,11.963 0.817,1.222 2.438,3.713 1.019,5.048 -1.341,1.258 -3.916,0.435 -5.549,1.383 -1.419,0.823 -2.265,2.39 -2.664,3.982 -0.733,2.956 0.03,6.419 2.438,8.285 1.68,1.305 3.969,1.693 6.055,1.264 2.087,-0.424 3.97,-1.61 5.472,-3.118 2.873,-2.885 4.423,-7.045 4.131,-11.11 -0.465,-6.45 -5.555,-11.135 -10.55,-14.604 -3.714,-2.581 -7.785,-4.792 -11.993,-6.485 -0.322,-0.125 -0.542,-0.423 -0.584,-0.769 -0.072,-0.667 0.56,-1.204 1.21,-1.007 10.234,3.093 21.351,8.094 26.793,15.813 7.528,10.676 6.616,25.875 0.906,37.355 -0.745,1.496 -2.575,2.051 -4.077,1.324 -2.963,-1.425 -6.479,-1.365 -9.37,0.119 -1.639,0.846 -3.601,0.131 -4.304,-1.58 -1.317,-3.183 -3.827,-5.394 -8.071,-4.047 -2.837,0.906 -4.977,2.378 -6.514,4.25 -1.568,1.895 -2.522,4.19 -2.981,6.694 v 7.993 c 0.513,3.302 1.574,6.61 2.981,9.578 1.418,2.993 3.194,5.645 5.102,7.594 9.459,9.65 23.735,15.086 36.997,16.475 4.59,0.477 9.239,0.495 13.829,0.036 6.163,-0.608 12.225,-2.074 17.917,-4.429 5.657,-2.336 10.95,-5.549 15.611,-9.68 C 11.885,58.235 13.03,25.368 0,0" /></g><g
           transform="translate(303.9422,376.4958)"
           id="g52"><path
             id="path54"
             style="fill:#f8a101;fill-opacity:1;fill-rule:nonzero;stroke:none"
             d="M 0,0 7.71,-0.173 C 7.913,-0.178 8.038,-0.24 8.085,-0.359 8.133,-0.478 8.082,-0.61 7.932,-0.752 L 0.742,-7.597 C 0.511,-7.817 0.286,-7.812 0.067,-7.581 L -17.59,10.966 c -0.132,0.139 -0.176,0.266 -0.134,0.384 0.042,0.117 0.159,0.2 0.352,0.252 l 5.172,0.937 17.562,16.719 1.189,5.118 c 0.061,0.19 0.151,0.304 0.27,0.34 0.119,0.036 0.245,-0.014 0.376,-0.153 l 8.886,-9.334 c 0.132,-0.138 0.176,-0.266 0.134,-0.383 -0.042,-0.117 -0.16,-0.202 -0.352,-0.253 L 10.693,23.657 -6.73,7.069 Z" /></g><g
           transform="translate(346.3229,372.0772)"
           id="g56"><path
             id="path58"
             style="fill:#f8a101;fill-opacity:1;fill-rule:nonzero;stroke:none"
             d="m 0,0 -9.958,7.722 -5.674,-7.318 5.752,-4.461 5.58,0.264 c 0.191,0.013 0.322,-0.038 0.394,-0.154 0.071,-0.116 0.048,-0.249 -0.069,-0.4 l -7.049,-9.091 c -0.117,-0.15 -0.241,-0.206 -0.37,-0.165 -0.13,0.04 -0.213,0.154 -0.248,0.342 l -1.134,5.47 -5.752,4.461 -6.054,-7.808 9.807,-7.605 7.496,0.982 c 0.201,0.026 0.336,-0.019 0.408,-0.135 0.071,-0.116 0.043,-0.255 -0.083,-0.419 l -6.025,-7.77 c -0.196,-0.252 -0.425,-0.275 -0.689,-0.07 l -22.16,17.184 c -0.151,0.117 -0.214,0.237 -0.19,0.358 0.024,0.123 0.128,0.223 0.31,0.304 l 4.869,1.721 14.946,19.275 0.351,5.164 c 0.012,0.172 0.085,0.286 0.22,0.342 0.134,0.057 0.277,0.027 0.428,-0.09 L 7.379,0.831 C 7.492,0.743 7.558,0.633 7.574,0.499 7.591,0.365 7.556,0.241 7.468,0.128 L 1.443,-7.642 C 1.316,-7.806 1.188,-7.867 1.058,-7.827 0.928,-7.787 0.85,-7.666 0.825,-7.465 Z" /></g><g
           transform="translate(376.0121,327.4293)"
           id="g60"><path
             id="path62"
             style="fill:#f8a101;fill-opacity:1;fill-rule:nonzero;stroke:none"
             d="M 0,0 7.311,2.456 C 7.503,2.52 7.642,2.504 7.727,2.408 7.812,2.311 7.809,2.171 7.716,1.986 L 3.278,-6.894 C 3.135,-7.179 2.922,-7.25 2.637,-7.108 L -20.269,4.341 c -0.17,0.085 -0.256,0.19 -0.256,0.315 0,0.124 0.082,0.243 0.246,0.358 l 4.546,2.636 10.841,21.69 -0.62,5.219 c -0.007,0.199 0.039,0.335 0.138,0.411 0.1,0.074 0.235,0.069 0.406,-0.017 L 6.56,29.192 c 0.171,-0.086 0.256,-0.191 0.256,-0.315 0,-0.125 -0.082,-0.244 -0.245,-0.358 L 2.024,25.882 -8.731,4.364 Z" /></g><g
           transform="translate(397.9245,326.9793)"
           id="g64"><path
             id="path66"
             style="fill:#f8a101;fill-opacity:1;fill-rule:nonzero;stroke:none"
             d="m 0,0 10.713,-3.706 -0.564,16.18 z m 7.068,-16.36 c -0.18,0.063 -0.279,0.155 -0.295,0.279 -0.016,0.123 0.05,0.252 0.197,0.386 l 4.028,3.102 -0.123,3.805 -14.051,4.861 -2.404,-2.931 1.25,-4.928 c 0.033,-0.196 0.005,-0.338 -0.084,-0.425 -0.089,-0.087 -0.223,-0.1 -0.404,-0.037 l -10.014,3.464 c -0.18,0.063 -0.275,0.154 -0.283,0.275 -0.009,0.121 0.06,0.248 0.208,0.382 l 4.142,3.214 19.687,23.696 c 0.179,0.224 0.396,0.292 0.652,0.204 l 7.24,-2.505 c 0.255,-0.089 0.384,-0.276 0.386,-0.563 l 1.378,-30.983 1.293,-5.094 c 0.033,-0.196 0.005,-0.338 -0.084,-0.425 -0.089,-0.088 -0.224,-0.1 -0.404,-0.037 z" /></g><g
           transform="translate(450.1821,333.7519)"
           id="g68"><path
             id="path70"
             style="fill:#f8a101;fill-opacity:1;fill-rule:nonzero;stroke:none"
             d="m 0,0 c -0.057,0.191 -0.052,0.336 0.018,0.435 0.07,0.099 0.198,0.129 0.385,0.09 l 10.464,-2.194 c 0.187,-0.039 0.296,-0.119 0.328,-0.239 0.031,-0.121 -0.017,-0.257 -0.147,-0.408 L 7.321,-6.022 -9.694,-31.935 c -0.131,-0.233 -0.336,-0.32 -0.616,-0.261 l -7.498,1.572 c -0.28,0.059 -0.433,0.22 -0.459,0.486 l -4.801,30.487 -1.925,4.891 c -0.057,0.19 -0.048,0.335 0.03,0.432 0.077,0.098 0.209,0.127 0.396,0.088 L -11.79,3.082 c 0.187,-0.04 0.292,-0.119 0.316,-0.237 0.024,-0.12 -0.029,-0.255 -0.158,-0.407 l -3.605,-3.584 3.465,-24.648 13.61,21.068 z" /></g><g
           transform="translate(474.0427,302.0747)"
           id="g72"><path
             id="path74"
             style="fill:#f8a101;fill-opacity:1;fill-rule:nonzero;stroke:none"
             d="m 0,0 c 1.201,-0.604 2.548,-0.958 4.04,-1.063 1.492,-0.105 2.875,0.056 4.149,0.484 1.275,0.428 2.415,1.113 3.423,2.055 1.008,0.942 1.831,2.207 2.47,3.798 0.638,1.589 1.032,3.432 1.18,5.527 0.148,2.095 0.017,3.974 -0.392,5.638 -0.408,1.663 -1.046,3.032 -1.911,4.106 -0.865,1.074 -1.898,1.908 -3.1,2.504 C 8.657,23.644 7.309,23.995 5.818,24.1 4.326,24.206 2.943,24.048 1.669,23.628 0.395,23.207 -0.745,22.526 -1.753,21.584 -2.761,20.643 -3.584,19.377 -4.222,17.787 -4.861,16.197 -5.254,14.355 -5.402,12.261 -5.55,10.166 -5.42,8.286 -5.011,6.622 -4.602,4.958 -3.965,3.59 -3.1,2.516 -2.235,1.441 -1.201,0.603 0,0 m 8.934,-6.122 c -1.735,-0.292 -3.492,-0.375 -5.269,-0.25 -1.778,0.126 -3.505,0.455 -5.182,0.988 -1.677,0.533 -3.288,1.325 -4.832,2.375 -1.545,1.05 -2.873,2.297 -3.983,3.739 -1.11,1.442 -1.959,3.204 -2.545,5.288 -0.587,2.082 -0.793,4.354 -0.619,6.814 0.173,2.46 0.697,4.68 1.571,6.66 0.873,1.979 1.961,3.602 3.262,4.865 1.301,1.264 2.791,2.307 4.468,3.13 1.677,0.822 3.383,1.38 5.118,1.672 1.735,0.292 3.492,0.376 5.27,0.25 1.777,-0.126 3.504,-0.455 5.182,-0.988 1.676,-0.534 3.287,-1.325 4.832,-2.375 1.544,-1.051 2.872,-2.293 3.984,-3.727 1.11,-1.434 1.959,-3.193 2.546,-5.275 0.586,-2.084 0.792,-4.356 0.619,-6.816 C 23.182,7.769 22.658,5.548 21.785,3.569 20.911,1.589 19.823,-0.037 18.521,-1.309 17.219,-2.58 15.729,-3.628 14.053,-4.45 12.375,-5.273 10.669,-5.83 8.934,-6.122" /></g><g
           transform="translate(506.3539,295.7514)"
           id="g76"><path
             id="path78"
             style="fill:#f8a101;fill-opacity:1;fill-rule:nonzero;stroke:none"
             d="m 0,0 c -0.191,-0.008 -0.316,0.043 -0.376,0.152 -0.061,0.109 -0.046,0.253 0.042,0.432 l 2.708,4.504 -0.978,24.228 -3.062,4.271 c -0.103,0.171 -0.129,0.313 -0.077,0.427 0.051,0.113 0.172,0.174 0.363,0.182 l 12.877,0.52 c 0.19,0.007 0.316,-0.044 0.376,-0.153 0.06,-0.109 0.046,-0.252 -0.042,-0.431 L 9.122,29.628 10.1,5.4 13.163,1.129 C 13.265,0.958 13.291,0.815 13.24,0.702 13.188,0.589 13.068,0.528 12.877,0.52 Z" /></g><g
           transform="translate(536.2616,327.0585)"
           id="g80"><path
             id="path82"
             style="fill:#f8a101;fill-opacity:1;fill-rule:nonzero;stroke:none"
             d="m 0,0 1.527,-10.365 4.25,0.626 c 5.477,0.807 7.969,2.887 7.476,6.239 -0.135,0.913 -0.437,1.681 -0.907,2.303 -0.469,0.622 -0.999,1.079 -1.588,1.37 C 10.168,0.465 9.464,0.658 8.646,0.755 7.827,0.852 7.087,0.883 6.424,0.85 5.762,0.817 5.037,0.742 4.25,0.626 Z m 27.402,-24.718 c 0.131,-0.126 0.174,-0.256 0.13,-0.392 -0.044,-0.135 -0.161,-0.216 -0.35,-0.244 l -13.151,-1.937 c -0.174,-0.025 -0.307,0.011 -0.402,0.11 -0.095,0.098 -0.116,0.24 -0.063,0.425 l 1.351,3.6 -7.96,8.356 -4.676,-0.689 1.11,-7.531 3.659,-4.696 c 0.12,-0.16 0.152,-0.299 0.098,-0.42 -0.055,-0.121 -0.177,-0.195 -0.366,-0.223 l -12.75,-1.878 c -0.188,-0.028 -0.326,0.009 -0.413,0.108 -0.087,0.1 -0.096,0.243 -0.028,0.43 l 2.15,5.552 -3.419,23.209 -3.496,3.924 c -0.12,0.159 -0.161,0.298 -0.122,0.416 0.039,0.118 0.153,0.192 0.342,0.219 L 3.92,5.812 c 10.546,1.554 16.309,-0.991 17.287,-7.633 0.712,-4.833 -1.367,-8.404 -6.238,-10.713 l 8.171,-8.47 z" /></g><g
           transform="translate(598.2462,317.2072)"
           id="g84"><path
             id="path86"
             style="fill:#f8a101;fill-opacity:1;fill-rule:nonzero;stroke:none"
             d="m 0,0 c 3.597,1.282 6.036,3.182 7.317,5.7 1.282,2.517 1.239,5.694 -0.129,9.531 -1.368,3.836 -3.344,6.324 -5.93,7.463 -2.585,1.14 -5.675,1.068 -9.272,-0.214 l -3.44,-1.226 8.014,-22.48 z m -9.461,27.462 c 1.948,0.695 3.831,1.193 5.649,1.495 1.818,0.302 3.685,0.359 5.602,0.172 1.916,-0.186 3.667,-0.668 5.253,-1.445 1.586,-0.778 3.072,-1.984 4.457,-3.619 1.385,-1.634 2.51,-3.665 3.376,-6.093 0.865,-2.428 1.279,-4.713 1.24,-6.855 C 16.077,8.975 15.69,7.101 14.953,5.495 14.216,3.89 13.165,2.409 11.799,1.052 10.433,-0.305 8.951,-1.441 7.352,-2.357 5.753,-3.274 3.979,-4.079 2.031,-4.774 l -13.443,-4.792 c -0.179,-0.064 -0.315,-0.054 -0.404,0.033 -0.09,0.086 -0.119,0.228 -0.088,0.424 l 1.245,5.107 -8.142,22.839 -4.195,3.167 c -0.148,0.132 -0.216,0.26 -0.2,0.384 0.015,0.124 0.112,0.218 0.292,0.282 z" /></g><g
           transform="translate(635.1348,360.0844)"
           id="g88"><path
             id="path90"
             style="fill:#f8a101;fill-opacity:1;fill-rule:nonzero;stroke:none"
             d="m 0,0 -11.102,-5.961 4.381,-8.159 6.413,3.444 2.026,5.206 c 0.066,0.179 0.166,0.278 0.301,0.297 0.135,0.018 0.247,-0.057 0.338,-0.225 l 5.442,-10.135 c 0.09,-0.168 0.09,-0.303 10e-4,-0.406 -0.09,-0.102 -0.228,-0.131 -0.414,-0.086 l -5.459,1.186 -6.413,-3.444 4.675,-8.704 10.933,5.871 2.148,7.248 c 0.059,0.194 0.155,0.3 0.29,0.318 0.135,0.018 0.251,-0.064 0.349,-0.246 l 4.652,-8.663 c 0.151,-0.28 0.078,-0.499 -0.216,-0.657 L -6.361,-36.382 c -0.168,-0.091 -0.303,-0.1 -0.405,-0.028 -0.101,0.071 -0.152,0.207 -0.15,0.407 l 0.405,5.147 -11.539,21.489 -4.576,2.419 c -0.152,0.081 -0.226,0.193 -0.224,0.34 0.003,0.146 0.089,0.264 0.257,0.355 L 2.239,7.081 C 2.365,7.148 2.492,7.163 2.622,7.124 2.751,7.085 2.85,7.002 2.917,6.876 L 7.569,-1.787 C 7.667,-1.969 7.671,-2.111 7.581,-2.214 7.491,-2.316 7.35,-2.338 7.156,-2.279 Z" /></g><g
           transform="translate(688.042,369.0393)"
           id="g92"><path
             id="path94"
             style="fill:#f8a101;fill-opacity:1;fill-rule:nonzero;stroke:none"
             d="M 0,0 0.705,7.68 C 0.724,7.881 0.794,8.002 0.917,8.042 1.039,8.081 1.166,8.021 1.298,7.862 L 7.631,0.215 C 7.834,-0.03 7.813,-0.254 7.568,-0.456 l -19.722,-16.335 c -0.147,-0.122 -0.277,-0.158 -0.391,-0.108 -0.114,0.05 -0.19,0.174 -0.228,0.369 l -0.577,5.225 -15.467,18.674 -5.025,1.539 c -0.185,0.074 -0.292,0.171 -0.32,0.293 -0.028,0.121 0.031,0.243 0.178,0.364 l 9.925,8.221 c 0.147,0.122 0.278,0.157 0.392,0.107 0.113,-0.05 0.19,-0.172 0.227,-0.368 l 0.578,-5.224 15.345,-18.527 z" /></g><g
           transform="translate(697.2329,389.1376)"
           id="g96"><path
             id="path98"
             style="fill:#f8a101;fill-opacity:1;fill-rule:nonzero;stroke:none"
             d="M 0,0 7.504,8.497 -7.674,14.133 Z M 17.819,0.311 C 17.692,0.168 17.569,0.112 17.449,0.144 17.328,0.176 17.234,0.286 17.166,0.473 L 15.83,5.378 12.265,6.713 2.422,-4.431 4.219,-7.769 9.251,-8.489 C 9.446,-8.533 9.566,-8.613 9.613,-8.728 9.659,-8.844 9.62,-8.973 9.493,-9.116 l -7.014,-7.942 c -0.127,-0.143 -0.247,-0.196 -0.363,-0.158 -0.114,0.038 -0.206,0.15 -0.274,0.338 l -1.396,5.053 -14.42,27.224 c -0.14,0.25 -0.12,0.477 0.059,0.679 l 5.071,5.743 c 0.179,0.202 0.402,0.25 0.667,0.142 L 21,11.448 26.203,10.706 c 0.194,-0.045 0.315,-0.125 0.361,-0.24 0.047,-0.116 0.007,-0.245 -0.119,-0.388 z" /></g><g
           transform="translate(381.4886,296.8434)"
           id="g100"><path
             id="path102"
             style="fill:#e25b21;fill-opacity:1;fill-rule:nonzero;stroke:none"
             d="m 0,0 -2.452,0.92 -2.506,-6.676 2.452,-0.92 c 1.544,-0.58 2.83,-0.728 3.859,-0.446 1.028,0.282 1.759,1.001 2.192,2.154 0.231,0.617 0.303,1.189 0.216,1.714 C 3.672,-2.729 3.442,-2.266 3.069,-1.867 2.695,-1.468 2.261,-1.121 1.765,-0.826 1.27,-0.531 0.681,-0.256 0,0 m -3.615,-9.632 -2.453,0.92 -1.37,-3.651 1.315,-3.867 c 0.026,-0.124 0.011,-0.212 -0.044,-0.263 -0.056,-0.052 -0.138,-0.057 -0.247,-0.016 l -8.148,3.058 c -0.108,0.041 -0.172,0.101 -0.188,0.18 -0.018,0.079 0.02,0.158 0.112,0.237 l 2.786,2.328 5.026,13.392 -0.707,3.126 c -0.017,0.12 0.002,0.206 0.058,0.258 0.055,0.051 0.138,0.057 0.247,0.016 L 1.355,2.864 C 2.418,2.465 3.364,2.045 4.193,1.605 5.022,1.164 5.778,0.652 6.461,0.069 7.144,-0.513 7.67,-1.133 8.04,-1.791 8.41,-2.447 8.62,-3.192 8.671,-4.024 8.721,-4.856 8.572,-5.736 8.224,-6.663 7.866,-7.616 7.389,-8.406 6.791,-9.031 6.194,-9.656 5.526,-10.11 4.788,-10.393 4.05,-10.676 3.219,-10.825 2.296,-10.841 c -0.923,-0.016 -1.867,0.079 -2.831,0.285 -0.964,0.206 -1.991,0.514 -3.08,0.924" /></g><g
           transform="translate(399.0444,280.6742)"
           id="g104"><path
             id="path106"
             style="fill:#e25b21;fill-opacity:1;fill-rule:nonzero;stroke:none"
             d="M 0,0 6.644,-1.907 5.773,7.927 Z m 4.838,-9.73 c -0.112,0.032 -0.175,0.085 -0.189,0.16 -0.014,0.074 0.022,0.155 0.107,0.241 l 2.351,2.02 -0.199,2.314 -8.714,2.501 -1.367,-1.864 0.921,-2.959 c 0.027,-0.119 0.014,-0.206 -0.037,-0.262 -0.051,-0.056 -0.133,-0.068 -0.245,-0.036 l -6.21,1.783 c -0.112,0.032 -0.173,0.084 -0.182,0.158 -0.009,0.073 0.029,0.153 0.114,0.24 l 2.417,2.092 11.215,15.07 c 0.101,0.143 0.231,0.191 0.389,0.145 L 9.7,10.585 c 0.158,-0.046 0.242,-0.156 0.253,-0.33 l 1.85,-18.82 0.954,-3.06 c 0.027,-0.119 0.014,-0.206 -0.037,-0.262 -0.052,-0.056 -0.133,-0.067 -0.245,-0.035 z" /></g><g
           transform="translate(432.4001,277.0338)"
           id="g108"><path
             id="path110"
             style="fill:#e25b21;fill-opacity:1;fill-rule:nonzero;stroke:none"
             d="m 0,0 c 1.183,-0.563 2.156,-1.102 2.919,-1.616 0.763,-0.514 1.397,-1.079 1.902,-1.695 0.505,-0.615 0.826,-1.286 0.963,-2.01 0.136,-0.725 0.114,-1.54 -0.067,-2.443 -0.844,-4.215 -4.229,-5.728 -10.155,-4.541 -1.722,0.345 -3.173,0.769 -4.354,1.273 -1.18,0.503 -2.322,1.088 -3.425,1.754 -0.179,0.096 -0.216,0.231 -0.111,0.408 l 3.546,5.256 c 0.06,0.107 0.134,0.152 0.219,0.134 0.086,-0.017 0.141,-0.087 0.166,-0.211 l 0.635,-4.238 c 1.048,-0.596 2.367,-1.053 3.955,-1.371 2.959,-0.593 4.604,-0.061 4.935,1.594 0.061,0.304 0.068,0.585 0.02,0.842 -0.047,0.257 -0.17,0.509 -0.368,0.756 -0.197,0.248 -0.406,0.468 -0.624,0.66 -0.219,0.192 -0.547,0.411 -0.982,0.656 -0.436,0.246 -0.829,0.456 -1.18,0.63 -0.351,0.174 -0.843,0.409 -1.477,0.704 -0.964,0.47 -1.793,0.963 -2.486,1.477 -0.694,0.515 -1.242,1.028 -1.644,1.539 -0.402,0.511 -0.7,1.053 -0.891,1.626 -0.192,0.573 -0.296,1.127 -0.312,1.665 -0.016,0.538 0.037,1.11 0.159,1.719 0.163,0.819 0.46,1.536 0.89,2.152 0.431,0.617 0.935,1.099 1.515,1.448 0.579,0.349 1.233,0.609 1.959,0.78 0.727,0.171 1.466,0.253 2.217,0.246 C -1.326,9.187 -0.561,9.106 0.219,8.95 1.389,8.715 2.485,8.416 3.506,8.054 4.526,7.691 5.317,7.365 5.877,7.075 6.437,6.784 7.074,6.419 7.787,5.979 7.947,5.888 7.985,5.757 7.901,5.586 L 4.689,0.218 C 4.628,0.112 4.555,0.067 4.469,0.084 4.384,0.101 4.333,0.171 4.318,0.293 L 3.386,4.605 C 2.338,5.201 1.176,5.626 -0.098,5.882 -1.297,6.122 -2.225,6.105 -2.884,5.831 -3.542,5.557 -3.941,5.073 -4.08,4.379 -4.188,3.837 -4.148,3.346 -3.959,2.908 -3.77,2.469 -3.357,2.011 -2.721,1.531 -2.084,1.053 -1.178,0.542 0,0" /></g><g
           transform="translate(459.0219,272.8783)"
           id="g112"><path
             id="path114"
             style="fill:#e25b21;fill-opacity:1;fill-rule:nonzero;stroke:none"
             d="m 0,0 c 1.224,-0.469 2.236,-0.93 3.036,-1.383 0.801,-0.453 1.477,-0.967 2.028,-1.541 0.552,-0.574 0.924,-1.218 1.117,-1.929 0.193,-0.712 0.234,-1.526 0.125,-2.441 -0.513,-4.267 -3.77,-6.04 -9.77,-5.32 -1.744,0.21 -3.224,0.519 -4.44,0.929 -1.216,0.41 -2.4,0.904 -3.552,1.482 -0.186,0.081 -0.233,0.214 -0.143,0.398 l 3.125,5.517 c 0.053,0.111 0.122,0.162 0.209,0.151 0.087,-0.01 0.147,-0.076 0.181,-0.198 l 0.964,-4.176 c 1.092,-0.511 2.442,-0.864 4.051,-1.057 2.995,-0.36 4.594,0.298 4.795,1.974 0.037,0.308 0.022,0.588 -0.046,0.841 -0.067,0.252 -0.209,0.494 -0.425,0.725 -0.217,0.231 -0.442,0.434 -0.675,0.609 -0.233,0.174 -0.576,0.367 -1.03,0.578 -0.453,0.211 -0.862,0.389 -1.225,0.535 -0.364,0.146 -0.873,0.342 -1.527,0.587 -0.999,0.393 -1.864,0.82 -2.595,1.279 -0.731,0.459 -1.317,0.928 -1.758,1.406 -0.441,0.478 -0.78,0.994 -1.016,1.55 -0.236,0.557 -0.383,1.102 -0.441,1.637 -0.058,0.534 -0.05,1.11 0.024,1.726 0.1,0.828 0.34,1.566 0.721,2.215 0.38,0.648 0.846,1.168 1.396,1.562 0.551,0.393 1.181,0.703 1.893,0.93 0.711,0.227 1.441,0.367 2.19,0.418 C -2.039,9.056 -1.27,9.035 -0.48,8.94 0.705,8.798 1.82,8.585 2.866,8.303 3.912,8.021 4.725,7.758 5.307,7.512 5.888,7.266 6.551,6.952 7.296,6.569 7.463,6.491 7.511,6.363 7.441,6.186 L 4.658,0.584 C 4.605,0.473 4.536,0.423 4.449,0.433 4.362,0.444 4.307,0.509 4.282,0.629 L 3.016,4.856 C 1.925,5.368 0.733,5.702 -0.557,5.856 -1.771,6.003 -2.695,5.913 -3.33,5.589 -3.965,5.264 -4.325,4.75 -4.409,4.047 -4.475,3.498 -4.397,3.012 -4.174,2.59 -3.951,2.168 -3.504,1.742 -2.832,1.315 -2.16,0.887 -1.217,0.449 0,0" /></g><g
           transform="translate(491.0659,275.8126)"
           id="g116"><path
             id="path118"
             style="fill:#e25b21;fill-opacity:1;fill-rule:nonzero;stroke:none"
             d="m 0,0 -7.677,0.31 -0.228,-5.642 4.435,-0.179 2.677,2.106 c 0.09,0.074 0.174,0.095 0.25,0.063 0.076,-0.033 0.113,-0.107 0.108,-0.223 l -0.283,-7.009 c -0.005,-0.116 -0.047,-0.187 -0.125,-0.213 -0.079,-0.026 -0.16,0.001 -0.244,0.082 l -2.5,2.315 -4.434,0.179 -0.243,-6.02 7.561,-0.305 3.374,3.141 c 0.091,0.084 0.175,0.109 0.251,0.077 0.076,-0.032 0.112,-0.111 0.107,-0.237 L 2.787,-17.546 C 2.779,-17.74 2.674,-17.832 2.47,-17.824 l -17.085,0.689 c -0.116,0.005 -0.19,0.042 -0.221,0.111 -0.031,0.07 -0.016,0.156 0.047,0.26 l 1.808,2.578 0.6,14.861 -1.654,2.688 c -0.055,0.089 -0.059,0.172 -0.012,0.248 0.047,0.075 0.128,0.111 0.245,0.106 L 3.37,3.025 C 3.457,3.021 3.529,2.989 3.585,2.928 3.64,2.868 3.666,2.794 3.663,2.707 L 3.421,-3.284 C 3.416,-3.41 3.374,-3.486 3.295,-3.512 3.216,-3.538 3.135,-3.505 3.052,-3.415 Z" /></g><g
           transform="translate(511.7463,275.9208)"
           id="g120"><path
             id="path122"
             style="fill:#e25b21;fill-opacity:1;fill-rule:nonzero;stroke:none"
             d="m 0,0 0.27,-6.383 2.617,0.111 C 6.26,-6.13 7.902,-5.026 7.815,-2.962 7.792,-2.4 7.657,-1.915 7.412,-1.508 7.166,-1.101 6.874,-0.79 6.535,-0.576 6.196,-0.363 5.781,-0.2 5.291,-0.09 4.8,0.02 4.354,0.087 3.95,0.108 3.546,0.13 3.102,0.131 2.617,0.111 Z m 15.053,-16.726 c 0.071,-0.085 0.089,-0.167 0.054,-0.245 -0.036,-0.08 -0.112,-0.122 -0.228,-0.127 l -8.098,-0.341 c -0.107,-0.005 -0.186,0.025 -0.237,0.092 -0.052,0.065 -0.055,0.152 -0.011,0.261 l 1.047,2.098 -4.299,5.572 -2.878,-0.122 0.195,-4.638 1.922,-3.079 c 0.062,-0.105 0.074,-0.191 0.033,-0.261 -0.041,-0.07 -0.12,-0.107 -0.236,-0.112 l -7.851,-0.331 c -0.116,-0.005 -0.198,0.025 -0.244,0.091 -0.047,0.066 -0.043,0.154 0.01,0.263 l 1.656,3.23 -0.604,14.292 -1.872,2.602 c -0.062,0.103 -0.078,0.19 -0.047,0.26 0.031,0.069 0.105,0.106 0.221,0.111 l 9.16,0.387 c 6.494,0.274 9.827,-1.634 10,-5.725 0.125,-2.976 -1.362,-5.01 -4.462,-6.102 l 4.419,-5.654 z" /></g><g
           transform="translate(549.0987,279.1584)"
           id="g124"><path
             id="path126"
             style="fill:#e25b21;fill-opacity:1;fill-rule:nonzero;stroke:none"
             d="m 0,0 -7.622,-0.967 0.71,-5.601 4.403,0.559 2.291,2.52 c 0.077,0.088 0.156,0.122 0.237,0.103 0.08,-0.019 0.128,-0.086 0.142,-0.202 l 0.883,-6.958 c 0.015,-0.116 -0.015,-0.193 -0.088,-0.231 -0.073,-0.039 -0.158,-0.025 -0.254,0.04 l -2.848,1.869 -4.404,-0.558 0.758,-5.977 7.507,0.952 2.808,3.657 c 0.075,0.097 0.153,0.137 0.234,0.117 0.081,-0.019 0.129,-0.091 0.145,-0.216 l 0.754,-5.948 c 0.025,-0.193 -0.064,-0.301 -0.266,-0.327 l -16.963,-2.152 c -0.116,-0.014 -0.195,0.01 -0.237,0.073 -0.042,0.063 -0.041,0.151 0.003,0.265 l 1.356,2.841 -1.871,14.754 -2.076,2.378 c -0.069,0.079 -0.087,0.159 -0.053,0.242 0.034,0.083 0.108,0.131 0.223,0.146 L 2.822,3.541 C 2.909,3.552 2.984,3.533 3.05,3.482 3.114,3.431 3.153,3.363 3.164,3.277 L 3.918,-2.671 C 3.934,-2.796 3.905,-2.878 3.832,-2.917 3.758,-2.956 3.673,-2.937 3.575,-2.862 Z" /></g><g
           transform="translate(578.3009,269.7123)"
           id="g128"><path
             id="path130"
             style="fill:#e25b21;fill-opacity:1;fill-rule:nonzero;stroke:none"
             d="M 0,0 2.57,3.938 C 2.638,4.041 2.71,4.086 2.788,4.072 2.865,4.058 2.916,3.99 2.942,3.867 L 4.174,-2.061 C 4.213,-2.251 4.138,-2.365 3.948,-2.405 L -11.34,-5.582 c -0.114,-0.023 -0.194,-0.005 -0.242,0.054 -0.047,0.059 -0.053,0.148 -0.017,0.264 l 1.179,2.98 -3.008,14.476 -2.269,2.263 c -0.079,0.093 -0.108,0.176 -0.089,0.249 0.02,0.073 0.086,0.122 0.2,0.146 l 7.694,1.599 c 0.114,0.023 0.194,0.005 0.242,-0.054 0.046,-0.06 0.053,-0.148 0.017,-0.264 l -1.179,-2.98 2.985,-14.362 z" /></g><g
           transform="translate(603.2335,276.2713)"
           id="g132"><path
             id="path134"
             style="fill:#e25b21;fill-opacity:1;fill-rule:nonzero;stroke:none"
             d="M 0,0 2.27,4.118 C 2.33,4.226 2.399,4.276 2.477,4.268 2.555,4.26 2.612,4.196 2.646,4.075 l 1.669,-5.82 C 4.369,-1.931 4.302,-2.051 4.116,-2.105 L -10.893,-6.41 c -0.112,-0.032 -0.194,-0.02 -0.245,0.036 -0.052,0.055 -0.064,0.143 -0.037,0.261 l 0.954,3.06 -4.077,14.212 -2.431,2.088 c -0.085,0.087 -0.121,0.167 -0.107,0.242 0.014,0.074 0.077,0.128 0.189,0.16 l 7.554,2.167 c 0.111,0.032 0.193,0.02 0.244,-0.036 0.052,-0.056 0.064,-0.143 0.038,-0.262 l -0.955,-3.059 4.045,-14.1 z" /></g><g
           transform="translate(624.1377,298.9657)"
           id="g136"><path
             id="path138"
             style="fill:#e25b21;fill-opacity:1;fill-rule:nonzero;stroke:none"
             d="m 0,0 -7.189,-2.712 1.993,-5.283 4.153,1.567 1.643,2.984 c 0.054,0.103 0.123,0.155 0.206,0.155 0.082,0 0.145,-0.054 0.186,-0.163 l 2.476,-6.562 c 0.041,-0.11 0.03,-0.191 -0.032,-0.246 -0.063,-0.055 -0.148,-0.061 -0.257,-0.019 l -3.205,1.155 -4.153,-1.567 2.127,-5.637 7.08,2.672 1.881,4.209 c 0.05,0.112 0.117,0.168 0.2,0.169 0.083,0 0.147,-0.059 0.192,-0.177 l 2.116,-5.609 c 0.068,-0.182 0.007,-0.309 -0.183,-0.381 l -15.998,-6.036 c -0.109,-0.041 -0.192,-0.036 -0.247,0.016 -0.056,0.051 -0.075,0.137 -0.059,0.258 l 0.658,3.079 -5.25,13.915 -2.572,1.829 c -0.085,0.061 -0.121,0.135 -0.108,0.224 0.014,0.088 0.075,0.152 0.184,0.194 L 1.922,4.1 C 2.003,4.131 2.082,4.129 2.157,4.096 2.232,4.062 2.285,4.004 2.316,3.922 L 4.432,-1.687 C 4.477,-1.805 4.468,-1.892 4.405,-1.946 4.343,-2.001 4.255,-2.003 4.143,-1.952 Z" /></g><g
           transform="translate(635.6608,296.4418)"
           id="g140"><path
             id="path142"
             style="fill:#e25b21;fill-opacity:1;fill-rule:nonzero;stroke:none"
             d="m 0,0 c -0.573,0 -1.119,0.332 -1.365,0.89 -0.331,0.753 0.01,1.633 0.764,1.965 34.543,15.21 64.767,35.774 89.831,61.119 0.58,0.585 1.523,0.591 2.108,0.012 0.585,-0.579 0.59,-1.522 0.012,-2.107 C 66.021,36.265 35.488,15.489 0.6,0.127 0.404,0.041 0.201,0 0,0" /></g><g
           transform="translate(366.2883,295.5896)"
           id="g144"><path
             id="path146"
             style="fill:#e25b21;fill-opacity:1;fill-rule:nonzero;stroke:none"
             d="m 0,0 c -0.197,0 -0.398,0.04 -0.59,0.123 -35.7,15.429 -66.892,36.493 -92.709,62.608 -0.578,0.586 -0.573,1.529 0.012,2.108 0.585,0.578 1.529,0.573 2.108,-0.012 C -65.632,38.985 -34.756,18.136 0.592,2.859 1.348,2.532 1.695,1.655 1.369,0.899 1.125,0.337 0.577,0 0,0" /></g><g
           transform="translate(344.8024,535.7934)"
           id="g148"><path
             id="path150"
             style="fill:#4ab3d7;fill-opacity:1;fill-rule:nonzero;stroke:none"
             d="m 0,0 c -0.098,0.058 -0.149,0.171 -0.191,0.277 -1.129,2.853 -0.35,6.945 1.679,9.238 2.09,2.36 7.761,2.809 8.521,-1.054 C 10.591,5.503 7.805,3.321 5.546,2.08 3.92,1.187 2.204,0.441 0.403,-0.007 0.269,-0.041 0.119,-0.07 0,0" /></g><g
           transform="translate(679.5672,520.3043)"
           id="g152"><path
             id="path154"
             style="fill:#4ab3d7;fill-opacity:1;fill-rule:nonzero;stroke:none"
             d="M 0,0 C -0.054,0.136 -0.017,0.29 0.024,0.43 1.127,4.201 5.13,7.725 8.984,8.447 12.951,9.191 19.036,5.187 16.767,0.684 15.03,-2.763 10.499,-2.779 7.241,-2.257 4.896,-1.881 2.574,-1.286 0.402,-0.324 0.24,-0.253 0.065,-0.165 0,0" /></g><g
           transform="translate(668.583,535.4045)"
           id="g156"><path
             id="path158"
             style="fill:#4ab3d7;fill-opacity:1;fill-rule:nonzero;stroke:none"
             d="M 0,0 C -0.151,0.118 -0.21,0.316 -0.257,0.501 -1.509,5.481 0.673,12.1 4.54,15.463 8.52,18.925 18.027,18.436 18.448,11.86 18.769,6.826 13.672,3.811 9.655,2.245 6.762,1.117 3.752,0.253 0.668,-0.1 0.438,-0.126 0.182,-0.143 0,0" /></g><g
           transform="translate(655.5549,535.7934)"
           id="g160"><path
             id="path162"
             style="fill:#4ab3d7;fill-opacity:1;fill-rule:nonzero;stroke:none"
             d="m 0,0 c 0.098,0.058 0.149,0.171 0.191,0.277 1.129,2.853 0.35,6.945 -1.679,9.238 -2.09,2.36 -7.761,2.809 -8.521,-1.054 C -10.591,5.503 -7.805,3.321 -5.546,2.08 -3.92,1.187 -2.204,0.441 -0.403,-0.007 -0.269,-0.041 -0.119,-0.07 0,0" /></g><g
           transform="translate(481.1976,698.3638)"
           id="g164"><path
             id="path166"
             style="fill:#4ab3d7;fill-opacity:1;fill-rule:nonzero;stroke:none"
             d="m 0,0 c -1.336,-2.756 -4.649,-3.91 -7.412,-2.574 -2.756,1.335 -3.91,4.649 -2.574,7.411 1.336,2.756 4.656,3.91 7.412,2.575 C 0.181,6.076 1.336,2.756 0,0 m -10.265,-5.298 c -0.668,-1.381 -2.328,-1.958 -3.709,-1.29 -1.375,0.668 -1.952,2.328 -1.284,3.702 0.661,1.382 2.321,1.959 3.703,1.291 1.381,-0.668 1.952,-2.328 1.29,-3.703 m 9.837,17.612 c -0.285,0 -0.571,-0.007 -0.85,-0.02 -0.194,-0.006 -0.395,-0.019 -0.59,-0.032 -0.052,0 -0.097,-0.006 -0.149,-0.006 -0.454,-0.039 -0.908,-0.091 -1.362,-0.156 -7.392,-1.051 -13.519,-6.024 -16.211,-12.748 -0.019,-0.033 -0.032,-0.072 -0.045,-0.111 -0.104,-0.259 -0.201,-0.525 -0.292,-0.791 -0.097,-0.272 -0.181,-0.544 -0.266,-0.817 -0.032,-0.104 -0.065,-0.207 -0.09,-0.311 -0.072,-0.24 -0.137,-0.48 -0.195,-0.726 -0.058,-0.253 -0.117,-0.506 -0.169,-0.759 -0.071,-0.337 -0.129,-0.681 -0.181,-1.018 -0.026,-0.143 -0.046,-0.285 -0.059,-0.435 -0.006,-0.025 -0.012,-0.051 -0.012,-0.084 -0.026,-0.201 -0.052,-0.408 -0.072,-0.616 -0.032,-0.331 -0.058,-0.661 -0.071,-0.998 -0.019,-0.338 -0.026,-0.675 -0.026,-1.012 0,-11.4 9.24,-20.64 20.64,-20.64 11.4,0 20.64,9.24 20.64,20.64 0,11.4 -9.24,20.64 -20.64,20.64" /></g><g
           transform="translate(497.7525,735.6285)"
           id="g168"><path
             id="path170"
             style="fill:#4ab3d7;fill-opacity:1;fill-rule:nonzero;stroke:none"
             d="m 0,0 c -0.695,-1.435 -2.42,-2.036 -3.858,-1.34 -1.435,0.695 -2.036,2.42 -1.341,3.858 0.696,1.435 2.424,2.036 3.859,1.34 C 0.094,3.163 0.695,1.435 0,0 m -5.344,-2.758 c -0.347,-0.719 -1.212,-1.019 -1.931,-0.672 -0.715,0.348 -1.016,1.212 -0.668,1.928 0.344,0.719 1.209,1.019 1.928,0.672 0.719,-0.348 1.016,-1.212 0.671,-1.928 M -0.223,6.41 C -0.371,6.41 -0.52,6.407 -0.665,6.4 -0.766,6.397 -0.871,6.39 -0.972,6.383 -0.999,6.383 -1.023,6.38 -1.05,6.38 -1.286,6.36 -1.522,6.333 -1.759,6.299 -5.607,5.752 -8.797,3.163 -10.198,-0.338 c -0.01,-0.016 -0.017,-0.037 -0.023,-0.057 -0.055,-0.135 -0.105,-0.273 -0.152,-0.412 -0.051,-0.142 -0.095,-0.283 -0.139,-0.425 -0.017,-0.054 -0.034,-0.108 -0.047,-0.162 -0.037,-0.125 -0.071,-0.25 -0.101,-0.378 -0.031,-0.132 -0.061,-0.264 -0.088,-0.395 -0.037,-0.176 -0.068,-0.355 -0.095,-0.53 -0.013,-0.074 -0.023,-0.149 -0.03,-0.226 -0.003,-0.014 -0.007,-0.027 -0.007,-0.044 -0.013,-0.105 -0.027,-0.213 -0.037,-0.321 -0.017,-0.172 -0.03,-0.344 -0.037,-0.52 -0.01,-0.175 -0.014,-0.351 -0.014,-0.526 0,-5.935 4.811,-10.745 10.745,-10.745 5.935,0 10.745,4.81 10.745,10.745 0,5.934 -4.81,10.744 -10.745,10.744" /></g><g
           transform="translate(528.8639,703.3337)"
           id="g172"><path
             id="path174"
             style="fill:#4ab3d7;fill-opacity:1;fill-rule:nonzero;stroke:none"
             d="m 0,0 c -0.695,-1.435 -2.42,-2.036 -3.858,-1.34 -1.435,0.695 -2.036,2.42 -1.341,3.858 0.696,1.435 2.424,2.036 3.859,1.34 C 0.094,3.163 0.695,1.435 0,0 m -5.344,-2.758 c -0.347,-0.719 -1.212,-1.019 -1.931,-0.672 -0.715,0.348 -1.016,1.212 -0.668,1.928 0.344,0.719 1.209,1.019 1.928,0.672 0.718,-0.348 1.016,-1.212 0.671,-1.928 M -0.223,6.41 C -0.371,6.41 -0.52,6.407 -0.665,6.4 -0.766,6.397 -0.871,6.39 -0.972,6.383 -0.999,6.383 -1.023,6.38 -1.05,6.38 -1.286,6.36 -1.523,6.333 -1.759,6.299 -5.607,5.752 -8.797,3.163 -10.198,-0.338 c -0.01,-0.016 -0.017,-0.037 -0.023,-0.057 -0.055,-0.135 -0.105,-0.273 -0.152,-0.412 -0.051,-0.142 -0.095,-0.283 -0.139,-0.425 -0.017,-0.054 -0.034,-0.108 -0.047,-0.162 -0.037,-0.125 -0.071,-0.25 -0.101,-0.378 -0.031,-0.132 -0.061,-0.264 -0.088,-0.395 -0.037,-0.176 -0.068,-0.355 -0.095,-0.53 -0.013,-0.074 -0.023,-0.149 -0.03,-0.226 -0.003,-0.014 -0.007,-0.027 -0.007,-0.044 -0.013,-0.105 -0.027,-0.213 -0.037,-0.321 -0.017,-0.172 -0.03,-0.344 -0.037,-0.52 -0.01,-0.175 -0.014,-0.351 -0.014,-0.526 0,-5.935 4.811,-10.745 10.745,-10.745 5.935,0 10.745,4.81 10.745,10.745 0,5.934 -4.81,10.744 -10.745,10.744" /></g></g></g></g></svg>